<svg xmlns="http://www.w3.org/2000/svg" version="1.1" xmlnsXlink="http://www.w3.org/1999/xlink" xmlnsSvgjs="http://svgjs.com/svgjs" width="512" height="512" x="0" y="0" viewBox="0 0 430.082 430.082" style="enable-background:new 0 0 512 512" xml:space="preserve" class=""><g><path d="M407.71 124.995a6.83 6.83 0 0 0-4.937-2.113H204.8a6.828 6.828 0 0 0-6.821 7.146l4.931 106.027c.174 3.761 3.42 6.728 7.137 6.501a6.831 6.831 0 0 0 6.504-7.141l-4.599-98.879h183.675l-13.02 279.893H229.292c-3.77 0-6.827 3.053-6.827 6.827s3.057 6.827 6.827 6.827h159.829a6.828 6.828 0 0 0 6.82-6.508l13.653-293.547a6.816 6.816 0 0 0-1.884-5.033z" fill="#ffffff" data-original="#ffffff" class=""></path><path d="M279.895 375.469H34.135a6.825 6.825 0 0 0-6.827 6.827c0 26.347 21.437 47.787 47.787 47.787h163.84c26.349 0 47.787-21.441 47.787-47.787a6.826 6.826 0 0 0-6.827-6.827zm-40.96 40.96H75.095c-16.485 0-30.278-11.747-33.447-27.307h230.734c-3.171 15.56-16.964 27.307-33.447 27.307z" fill="#ffffff" data-original="#ffffff" class=""></path><path d="M279.895 334.509H34.135c-15.056 0-27.307 12.247-27.307 27.307s12.25 27.307 27.307 27.307h245.76c15.056 0 27.307-12.247 27.307-27.307s-12.251-27.307-27.307-27.307zm0 40.96H34.135c-7.53 0-13.653-6.127-13.653-13.653 0-7.526 6.124-13.653 13.653-13.653h245.76c7.53 0 13.653 6.127 13.653 13.653 0 7.526-6.124 13.653-13.653 13.653z" fill="#ffffff" data-original="#ffffff" class=""></path><path d="M300.373 204.802c-31.147 0-58.329 21.042-66.103 51.161a6.83 6.83 0 0 0 4.903 8.32 6.83 6.83 0 0 0 8.317-4.907c6.216-24.095 27.962-40.921 52.883-40.921 30.114 0 54.613 24.499 54.613 54.613s-24.499 54.613-54.613 54.613a54.4 54.4 0 0 1-18.227-3.113c-3.55-1.246-7.456.601-8.713 4.154a6.825 6.825 0 0 0 4.154 8.713 68.04 68.04 0 0 0 22.787 3.9c37.644 0 68.265-30.626 68.265-68.267s-30.622-68.266-68.266-68.266z" fill="#ffffff" data-original="#ffffff" class=""></path><path d="M170.668 225.282h-27.307c-63.993 0-116.053 52.06-116.053 116.053a6.826 6.826 0 0 0 6.827 6.827h245.76a6.825 6.825 0 0 0 6.827-6.827c-.001-63.992-52.061-116.053-116.054-116.053zM41.188 334.509c3.526-53.294 48.003-95.573 102.173-95.573h27.307c54.17 0 98.647 42.279 102.173 95.573H41.188z" fill="#ffffff" data-original="#ffffff" class=""></path><path d="M88.748 266.241h13.653v13.653H88.748zM81.921 293.547h13.653V307.2H81.921zM163.841 259.414h13.653v13.653h-13.653zM204.801 293.547h13.653V307.2h-13.653zM143.361 300.374h13.653v13.653h-13.653zM416.428 95.576H184.321a6.825 6.825 0 0 0-6.827 6.827v27.307a6.826 6.826 0 0 0 6.827 6.827h232.107a6.825 6.825 0 0 0 6.827-6.827v-27.307a6.825 6.825 0 0 0-6.827-6.827zm-6.827 27.306H191.148v-13.653h218.453v13.653z" fill="#ffffff" data-original="#ffffff" class=""></path><path d="m238.784 100.969-20.48-95.573c-.79-3.68-4.413-6.04-8.107-5.239a6.828 6.828 0 0 0-5.246 8.107l20.48 95.573a6.83 6.83 0 0 0 6.67 5.393c.473 0 .957-.048 1.437-.154a6.827 6.827 0 0 0 5.246-8.107z" fill="#ffffff" data-original="#ffffff" class=""></path></g></svg>